<svg width="56" height="30" viewBox="0 0 56 30" fill="none" xmlns="http://www.w3.org/2000/svg">
<rect width="56" height="30" fill="white"/>
<mask id="path-1-inside-1_512_4566" fill="white">
<rect x="1.63443" y="16.1899" width="9.76514" height="4.02263" rx="0.519117" transform="rotate(-42.9793 1.63443 16.1899)"/>
</mask>
<rect x="1.63443" y="16.1899" width="9.76514" height="4.02263" rx="0.519117" transform="rotate(-42.9793 1.63443 16.1899)" stroke="#0A66C2" stroke-width="2.49176" mask="url(#path-1-inside-1_512_4566)"/>
<path d="M5.33503 17.7121L11.6893 24.2057C12.4706 25.0041 13.5405 25.4541 14.6575 25.4541L23.8124 25.4541" stroke="#0A66C2" stroke-width="1.24588"/>
<path d="M13.5912 18.4866L15.578 20.4738C15.9675 20.8633 16.4957 21.0822 17.0465 21.0822L23.9747 21.0822" stroke="#0A66C2" stroke-width="1.24588"/>
<path d="M9.94031 13.6857V13.6857C10.5976 14.6716 11.6619 15.3113 12.841 15.4292L13.055 15.4506H16.1261C17.0054 15.4506 17.7103 16.178 17.6827 17.0568L17.6812 17.1065C17.6556 17.9195 16.9892 18.5653 16.1758 18.5653V18.5653H13.055" stroke="#0A66C2" stroke-width="1.24588" stroke-linecap="round"/>
<path d="M20.9556 25.4177H23.2238C24.428 25.4177 25.4042 24.4414 25.4041 23.2372V23.2372C25.4039 22.0331 24.4278 21.0571 23.2238 21.0571H20.9561" stroke="#0A66C2" stroke-width="1.24588" stroke-linecap="round"/>
<mask id="path-6-inside-2_512_4566" fill="white">
<rect width="9.76514" height="4.02263" rx="0.519117" transform="matrix(-0.7316 -0.681734 -0.681734 0.7316 54.3654 16.1899)"/>
</mask>
<rect width="9.76514" height="4.02263" rx="0.519117" transform="matrix(-0.7316 -0.681734 -0.681734 0.7316 54.3654 16.1899)" stroke="#0A66C2" stroke-width="2.49176" mask="url(#path-6-inside-2_512_4566)"/>
<path d="M50.6646 17.7121L44.3103 24.2057C43.529 25.0041 42.4591 25.4541 41.3421 25.4541L32.1872 25.4541" stroke="#0A66C2" stroke-width="1.24588"/>
<path d="M42.4086 18.4866L40.4218 20.4738C40.0324 20.8633 39.5042 21.0822 38.9534 21.0822L32.0251 21.0822" stroke="#0A66C2" stroke-width="1.24588"/>
<path d="M46.0595 13.6857V13.6857C45.4022 14.6716 44.3379 15.3113 43.1589 15.4292L42.9448 15.4506H39.8737C38.9945 15.4506 38.2895 16.178 38.3171 17.0568L38.3187 17.1065C38.3442 17.9195 39.0106 18.5653 39.824 18.5653V18.5653H42.9448" stroke="#0A66C2" stroke-width="1.24588" stroke-linecap="round"/>
<path d="M35.0442 25.4177H32.7761C31.5718 25.4177 30.5956 24.4414 30.5958 23.2372V23.2372C30.5959 22.0331 31.572 21.0571 32.7761 21.0571H35.0437" stroke="#0A66C2" stroke-width="1.24588" stroke-linecap="round"/>
<rect x="20.8937" y="1.07103" width="14.4315" height="14.4315" rx="1.50544" stroke="#58ACFF" stroke-width="1.14206"/>
<line x1="20.9572" y1="3.93776" x2="24.0719" y2="0.823055" stroke="#58ACFF" stroke-width="1.14206"/>
<line y1="-0.571029" x2="4.40486" y2="-0.571029" transform="matrix(-0.707107 -0.707107 -0.707107 0.707107 34.8581 4.65294)" stroke="#58ACFF" stroke-width="1.14206"/>
<line x1="35.2619" y1="12.3244" x2="32.1472" y2="15.4391" stroke="#58ACFF" stroke-width="1.14206"/>
<line y1="-0.571029" x2="4.40486" y2="-0.571029" transform="matrix(-0.707107 -0.707107 -0.707107 0.707107 23.6483 15.8657)" stroke="#58ACFF" stroke-width="1.14206"/>
<path d="M24.5593 7.88011L26.82 10.3652L31.8039 5.37969" stroke="#4887C6" stroke-width="1.45353" stroke-linecap="round" stroke-linejoin="round"/>
</svg>
