<svg width="36" height="28" viewBox="0 0 36 28" fill="none" xmlns="http://www.w3.org/2000/svg">
<rect width="36" height="28" fill="white"/>
<path d="M1 21.5126H0.0555556C0.0555556 22.0342 0.478398 22.4571 1 22.4571L1 21.5126ZM23.2759 2.19444H24.2203C24.2203 1.67284 23.7975 1.25 23.2759 1.25V2.19444ZM35 21.5126V22.4571C35.5216 22.4571 35.9444 22.0342 35.9444 21.5126H35ZM35 12.9268H35.9444C35.9444 12.6618 35.8331 12.409 35.6377 12.2301L35 12.9268ZM29.1379 7.5606L29.7756 6.86397C29.6015 6.70457 29.374 6.61616 29.1379 6.61616V7.5606ZM23.2759 7.5606V6.61616C22.7543 6.61616 22.3314 7.039 22.3314 7.5606H23.2759ZM11.7797 21.5126C11.7797 23.2851 10.1832 24.8611 8.03448 24.8611V26.75C11.0658 26.75 13.6686 24.482 13.6686 21.5126H11.7797ZM8.03448 24.8611C5.88575 24.8611 4.28927 23.2851 4.28927 21.5126H2.40038C2.40038 24.482 5.00317 26.75 8.03448 26.75V24.8611ZM4.28927 21.5126C4.28927 19.7402 5.88575 18.1641 8.03448 18.1641V16.2753C5.00317 16.2753 2.40038 18.5433 2.40038 21.5126H4.28927ZM8.03448 18.1641C10.1832 18.1641 11.7797 19.7402 11.7797 21.5126H13.6686C13.6686 18.5433 11.0658 16.2753 8.03448 16.2753V18.1641ZM32.8831 21.5126C32.8831 23.2851 31.2867 24.8611 29.1379 24.8611V26.75C32.1692 26.75 34.772 24.482 34.772 21.5126H32.8831ZM29.1379 24.8611C26.9892 24.8611 25.3927 23.2851 25.3927 21.5126H23.5038C23.5038 24.482 26.1066 26.75 29.1379 26.75V24.8611ZM25.3927 21.5126C25.3927 19.7402 26.9892 18.1641 29.1379 18.1641V16.2753C26.1066 16.2753 23.5038 18.5433 23.5038 21.5126H25.3927ZM29.1379 18.1641C31.2867 18.1641 32.8831 19.7402 32.8831 21.5126H34.772C34.772 18.5433 32.1692 16.2753 29.1379 16.2753V18.1641ZM3.34483 20.5682H1V22.4571H3.34483V20.5682ZM1.94444 21.5126V4.34568H0.0555556V21.5126H1.94444ZM3.15123 3.13889H23.2759V1.25H3.15123V3.13889ZM22.3314 2.19444V21.5126H24.2203V2.19444H22.3314ZM23.2759 20.5682H12.7241V22.4571H23.2759V20.5682ZM33.8276 22.4571H35V20.5682H33.8276V22.4571ZM35.9444 21.5126V12.9268H34.0556V21.5126H35.9444ZM35.6377 12.2301L29.7756 6.86397L28.5002 8.25724L34.3623 13.6234L35.6377 12.2301ZM29.1379 6.61616H23.2759V8.50505H29.1379V6.61616ZM24.4483 20.5682H23.2759V22.4571H24.4483V20.5682ZM24.2203 21.5126V7.5606H22.3314V21.5126H24.2203ZM1.94444 4.34568C1.94444 3.67919 2.48474 3.13889 3.15123 3.13889V1.25C1.44154 1.25 0.0555556 2.63598 0.0555556 4.34568H1.94444Z" fill="#0B4C9F"/>
<path d="M7.45379 9.11646L9.85276 11.7468L16 5.99999" stroke="#58ACFF" stroke-width="1.51111" stroke-linecap="round" stroke-linejoin="round"/>
</svg>
