<svg width="32" height="30" viewBox="0 0 32 30" fill="none" xmlns="http://www.w3.org/2000/svg">
<rect width="32" height="30" fill="white"/>
<path d="M23.6719 15C23.6719 21.1226 18.7086 26.086 12.5859 26.086C6.46334 26.086 1.49998 21.1226 1.49998 15C1.49998 8.87739 6.46334 3.91403 12.5859 3.91403C18.7086 3.91403 23.6719 8.87739 23.6719 15ZM3.73498 15C3.73498 19.8882 7.69769 23.851 12.5859 23.851C17.4742 23.851 21.4369 19.8882 21.4369 15C21.4369 10.1117 17.4742 6.14902 12.5859 6.14902C7.69769 6.14902 3.73498 10.1117 3.73498 15Z" fill="#58ACFF"/>
<path d="M9.12155 13.6143L12.586 18.4644L27.8291 4.60693" stroke="#0B4C9F" stroke-width="2.2" stroke-linecap="round" stroke-linejoin="round"/>
</svg>
