<svg width="44" height="33" viewBox="0 0 44 33" fill="none" xmlns="http://www.w3.org/2000/svg">
<rect width="43" height="33" fill="white"/>
<rect x="6.3" y="1.3" width="33.4" height="22.4" rx="1.7" fill="white" stroke="#399CFF" stroke-width="1.4"/>
<path d="M15 16.5L14.44 16.92L14.9636 17.6181L15.5315 16.9556L15 16.5ZM18 13L17.7127 12.3617L17.5702 12.4258L17.4685 12.5444L18 13ZM28.2873 9.13835C28.6398 8.9797 28.797 8.56529 28.6383 8.21274C28.4797 7.8602 28.0653 7.70301 27.7127 7.86165L28.2873 9.13835ZM11.44 12.92L14.44 16.92L15.56 16.08L12.56 12.08L11.44 12.92ZM15.5315 16.9556L18.5315 13.4556L17.4685 12.5444L14.4685 16.0444L15.5315 16.9556ZM18.2873 13.6383L28.2873 9.13835L27.7127 7.86165L17.7127 12.3617L18.2873 13.6383Z" fill="#0B4C9F"/>
<rect x="5.3" y="23.3" width="4.4" height="8.4" rx="2.2" fill="white" stroke="#0B4C9F" stroke-width="1.4"/>
<circle cx="7.1" cy="8.1" r="2.8" fill="white" stroke="#0B4C9F" stroke-width="1.4"/>
<path d="M2.10902 13.2285C1.96674 12.4317 2.57937 11.7 3.38878 11.7H11.194C11.9851 11.7 12.5928 12.4007 12.4809 13.1838L10.9552 23.8636C10.8949 24.2859 10.6312 24.6518 10.2497 24.8425L8.08138 25.9267C7.71539 26.1097 7.28461 26.1097 6.91862 25.9267L4.71099 24.8229C4.34372 24.6392 4.0848 24.2929 4.01262 23.8886L2.10902 13.2285Z" fill="white" stroke="#0B4C9F" stroke-width="1.4"/>
<rect x="6" y="20" width="3" height="11" rx="1.5" fill="white"/>
<circle cx="20.5" cy="23.5" r="2.2" fill="white" stroke="#0A66C2" stroke-width="1.4"/>
<path d="M20.5 31.2C20.943 31.2 21.8641 31.1554 22.6912 30.9984C23.0987 30.921 23.5339 30.8074 23.8843 30.631C24.1897 30.4773 24.7 30.1349 24.7 29.5C24.7 28.8834 24.3648 27.9759 23.7156 27.2298C23.0376 26.4507 21.9777 25.8 20.5 25.8C19.0223 25.8 17.9624 26.4507 17.2844 27.2298C16.6352 27.9759 16.3 28.8834 16.3 29.5C16.3 30.1349 16.8103 30.4773 17.1157 30.631C17.4661 30.8074 17.9013 30.921 18.3088 30.9984C19.1359 31.1554 20.057 31.2 20.5 31.2Z" fill="white" stroke="#0A66C2" stroke-width="1.4"/>
<circle cx="29.5" cy="23.5" r="2.2" fill="white" stroke="#0A66C2" stroke-width="1.4"/>
<path d="M29.5 31.2C29.943 31.2 30.8641 31.1554 31.6912 30.9984C32.0987 30.921 32.5339 30.8074 32.8843 30.631C33.1897 30.4773 33.7 30.1349 33.7 29.5C33.7 28.8834 33.3648 27.9759 32.7156 27.2298C32.0376 26.4507 30.9777 25.8 29.5 25.8C28.0223 25.8 26.9624 26.4507 26.2844 27.2298C25.6352 27.9759 25.3 28.8834 25.3 29.5C25.3 30.1349 25.8103 30.4773 26.1157 30.631C26.4661 30.8074 26.9013 30.921 27.3088 30.9984C28.1359 31.1554 29.057 31.2 29.5 31.2Z" fill="white" stroke="#0A66C2" stroke-width="1.4"/>
<circle cx="38.5" cy="23.5" r="2.2" fill="white" stroke="#0A66C2" stroke-width="1.4"/>
<path d="M38.5 31.2C38.943 31.2 39.8641 31.1554 40.6912 30.9984C41.0987 30.921 41.5339 30.8074 41.8843 30.631C42.1897 30.4773 42.7 30.1349 42.7 29.5C42.7 28.8834 42.3648 27.9759 41.7156 27.2298C41.0376 26.4507 39.9777 25.8 38.5 25.8C37.0223 25.8 35.9624 26.4507 35.2844 27.2298C34.6352 27.9759 34.3 28.8834 34.3 29.5C34.3 30.1349 34.8103 30.4773 35.1157 30.631C35.4661 30.8074 35.9013 30.921 36.3088 30.9984C37.1359 31.1554 38.057 31.2 38.5 31.2Z" fill="white" stroke="#0A66C2" stroke-width="1.4"/>
</svg>
