<svg width="28" height="28" viewBox="0 0 28 28" fill="none" xmlns="http://www.w3.org/2000/svg">
<rect width="28" height="28" fill="white"/>
<path d="M17.3755 19.9044L16.5404 19.8716L16.5398 19.888V19.9044H17.3755ZM17.9082 6.36763L17.0731 6.33477V6.33477L17.9082 6.36763ZM4.54216 19.9044H5.37787V19.888L5.37722 19.8716L4.54216 19.9044ZM4.00946 6.36763L3.17439 6.40049L4.00946 6.36763ZM1.62549 4.2452C1.16394 4.2452 0.789774 4.61936 0.789774 5.08091C0.789774 5.54247 1.16394 5.91663 1.62549 5.91663V4.2452ZM20.2922 5.91663C20.7537 5.91663 21.1279 5.54247 21.1279 5.08091C21.1279 4.61936 20.7537 4.2452 20.2922 4.2452V5.91663ZM7.45882 0.539316C6.99727 0.539316 6.62311 0.913478 6.62311 1.37503C6.62311 1.83658 6.99727 2.21074 7.45882 2.21074V0.539316ZM14.4588 2.21074C14.9204 2.21074 15.2945 1.83658 15.2945 1.37503C15.2945 0.913478 14.9204 0.539316 14.4588 0.539316V2.21074ZM7.78977 17.4339C7.78977 17.8954 8.16394 18.2696 8.62549 18.2696C9.08704 18.2696 9.4612 17.8954 9.4612 17.4339H7.78977ZM9.4612 10.0221C9.4612 9.56054 9.08704 9.18637 8.62549 9.18637C8.16394 9.18637 7.78977 9.56054 7.78977 10.0221H9.4612ZM12.4564 17.4339C12.4564 17.8954 12.8306 18.2696 13.2922 18.2696C13.7537 18.2696 14.1279 17.8954 14.1279 17.4339H12.4564ZM14.1279 10.0221C14.1279 9.56054 13.7537 9.18637 13.2922 9.18637C12.8306 9.18637 12.4564 9.56054 12.4564 10.0221H14.1279ZM15.0422 21.5393H6.87549V23.2107H15.0422V21.5393ZM16.5398 19.9044C16.5398 20.853 15.8249 21.5393 15.0422 21.5393V23.2107C16.8367 23.2107 18.2112 21.6848 18.2112 19.9044H16.5398ZM17.0731 6.33477L16.5404 19.8716L18.2106 19.9373L18.7433 6.40049L17.0731 6.33477ZM5.37722 19.8716L4.84452 6.33477L3.17439 6.40049L3.70709 19.9373L5.37722 19.8716ZM6.87549 21.5393C6.09274 21.5393 5.37787 20.853 5.37787 19.9044H3.70644C3.70644 21.6848 5.08091 23.2107 6.87549 23.2107V21.5393ZM16.7425 4.2452H5.17511V5.91663H16.7425V4.2452ZM4.84452 6.33477C4.83366 6.05872 5.03317 5.91663 5.17511 5.91663V4.2452C3.99028 4.2452 3.13002 5.27294 3.17439 6.40049L4.84452 6.33477ZM18.7433 6.4005C18.7876 5.27294 17.9274 4.2452 16.7425 4.2452V5.91663C16.8845 5.91663 17.084 6.05872 17.0731 6.33477L18.7433 6.4005ZM1.62549 5.91663H20.2922V4.2452H1.62549V5.91663ZM7.45882 2.21074H14.4588V0.539316H7.45882V2.21074ZM9.4612 17.4339V10.0221H7.78977V17.4339H9.4612ZM14.1279 17.4339V10.0221H12.4564V17.4339H14.1279Z" fill="#0B4C9F"/>
<rect x="17.3311" y="11.3907" width="4.70429" height="2.03104" fill="white"/>
<path d="M25.8745 22.4698C25.8745 23.4343 25.6932 24.1097 25.4052 24.5912C25.1212 25.0661 24.7087 25.394 24.1661 25.6237C23.0355 26.1022 21.4327 26.125 19.5 26.125C17.5673 26.125 15.9645 26.1022 14.8339 25.6237C14.2913 25.394 13.8788 25.0661 13.5948 24.5912C13.3068 24.1097 13.1255 23.4343 13.1255 22.4698C13.1255 20.5355 13.8559 18.4303 15.0421 16.8139C16.2322 15.1922 17.8185 14.1399 19.5 14.1399C21.1815 14.1399 22.7678 15.1922 23.9579 16.8139C25.1441 18.4303 25.8745 20.5355 25.8745 22.4698Z" fill="white" stroke="#399CFF"/>
<rect x="15.5836" y="13.2317" width="7.83401" height="0.964514" rx="0.482257" fill="white" stroke="#399CFF" stroke-width="0.964514"/>
<path d="M18.4883 22.0987C18.4883 21.8226 18.2644 21.5987 17.9883 21.5987C17.7121 21.5987 17.4883 21.8226 17.4883 22.0987H18.4883ZM17.4883 22.0987V26.5503H18.4883V22.0987H17.4883Z" fill="#399CFF"/>
<path d="M19.999 21.2084C19.999 20.9322 19.7752 20.7084 19.499 20.7084C19.2229 20.7084 18.999 20.9322 18.999 21.2084H19.999ZM18.999 21.2084V26.1051H19.999V21.2084H18.999Z" fill="#399CFF"/>
<path d="M21.374 22.0987C21.374 21.8226 21.1502 21.5987 20.874 21.5987C20.5979 21.5987 20.374 21.8226 20.374 22.0987H21.374ZM20.374 22.0987V26.5503H21.374V22.0987H20.374Z" fill="#399CFF"/>
<path d="M16.5058 10.1428C16.3924 9.89099 16.1023 9.79084 15.8577 9.9191C15.6132 10.0474 15.5068 10.3555 15.6202 10.6073L16.5058 10.1428ZM15.6202 10.6073L16.8537 13.3472L17.7393 12.8828L16.5058 10.1428L15.6202 10.6073Z" fill="#399CFF"/>
<path d="M23.2621 10.565C23.3539 10.3046 23.2213 10.0084 22.9658 9.90348C22.7104 9.79856 22.4289 9.92462 22.3371 10.185L23.2621 10.565ZM22.3371 10.185L21.371 12.925L22.296 13.305L23.2621 10.565L22.3371 10.185Z" fill="#399CFF"/>
<path d="M16.063 10.3752C17.5065 11.7849 20.9434 11.7107 22.7994 10.3752" stroke="#399CFF" stroke-linecap="round"/>
</svg>
