<svg width="42" height="43" viewBox="0 0 42 43" fill="none" xmlns="http://www.w3.org/2000/svg">
<circle cx="11.25" cy="16.25" r="4.395" stroke="#58ACFF" stroke-width="1.71"/>
<path d="M14.9634 24.6485L15.4288 25.3657L16.3734 24.7529L15.5293 24.0076L14.9634 24.6485ZM4.60597 30.1034L5.43536 30.3111L4.60597 30.1034ZM10.2552 32V32.855H10.9118L11.0812 32.2205L10.2552 32ZM11.25 24.105C12.5722 24.105 13.5894 24.5758 14.3975 25.2894L15.5293 24.0076C14.4401 23.0458 13.029 22.395 11.25 22.395V24.105ZM5.43536 30.3111C5.74554 29.0725 6.30066 27.4853 7.2469 26.2251C8.17505 24.989 9.44359 24.105 11.25 24.105V22.395C8.77249 22.395 7.04124 23.6511 5.87946 25.1984C4.73576 26.7216 4.11081 28.5611 3.77658 29.8957L5.43536 30.3111ZM6.18368 31.145C5.62563 31.145 5.3376 30.7015 5.43536 30.3111L3.77658 29.8957C3.37132 31.514 4.67105 32.855 6.18368 32.855V31.145ZM10.2552 31.145H6.18368V32.855H10.2552V31.145ZM11.0812 32.2205C11.7666 29.6536 13.0548 26.9059 15.4288 25.3657L14.4981 23.9312C11.5949 25.8148 10.1546 29.0622 9.4291 31.7795L11.0812 32.2205Z" fill="#58ACFF"/>
<circle cx="30.75" cy="16.25" r="4.395" stroke="#0A66C2" stroke-width="1.71"/>
<path d="M31.7448 32L30.9187 32.2205L31.0881 32.855H31.7448V32ZM37.3939 30.1034L36.5645 30.3111L37.3939 30.1034ZM27.0365 24.6485L26.4706 24.0076L25.6265 24.7529L26.5711 25.3657L27.0365 24.6485ZM35.8162 31.145H31.7448V32.855H35.8162V31.145ZM36.5645 30.3111C36.6623 30.7015 36.3743 31.145 35.8162 31.145V32.855C37.3288 32.855 38.6286 31.514 38.2233 29.8957L36.5645 30.3111ZM30.7499 24.105C32.5563 24.105 33.8249 24.989 34.753 26.2251C35.6992 27.4853 36.2543 29.0725 36.5645 30.3111L38.2233 29.8957C37.8891 28.5611 37.2641 26.7216 36.1205 25.1984C34.9587 23.6511 33.2274 22.395 30.7499 22.395V24.105ZM27.6024 25.2894C28.4105 24.5758 29.4277 24.105 30.7499 24.105V22.395C28.9709 22.395 27.5598 23.0458 26.4706 24.0076L27.6024 25.2894ZM26.5711 25.3657C28.9451 26.9059 30.2333 29.6536 30.9187 32.2205L32.5708 31.7795C31.8454 29.0622 30.4051 25.8148 27.5018 23.9312L26.5711 25.3657Z" fill="#0A66C2"/>
<circle cx="21" cy="17.25" r="6.145" fill="white" stroke="#0B4C9F" stroke-width="1.71"/>
<path d="M21 26C27.4901 26 29.1664 31.7767 29.5993 34.7606C29.738 35.7171 28.9665 36.5 28 36.5H14C13.0335 36.5 12.262 35.7171 12.4007 34.7606C12.8336 31.7767 14.5099 26 21 26Z" stroke="#0B4C9F" stroke-width="1.71" stroke-linecap="round"/>
</svg>
